<?xml version="1.0" encoding="iso-8859-1"?>
<!-- Generator: Adobe Illustrator 19.2.1, SVG Export Plug-In . SVG Version: 6.00 Build 0)  -->
<svg version="1.1" id="Layer_1" xmlns="http://www.w3.org/2000/svg" xmlns:xlink="http://www.w3.org/1999/xlink" x="0px" y="0px"
	 viewBox="0 0 48 48" style="enable-background:new 0 0 48 48;" xml:space="preserve">
<g>
	<g>
		<path style="fill:#673AB7;" d="M42.601,35.653C42.86,34.814,43,33.924,43,33c0-0.926-0.141-1.819-0.4-2.659l0.191-0.111
			l1.482-1.433l-1.5-2.598l-1.982,0.567l-0.203,0.117c-1.209-1.302-2.795-2.245-4.589-2.653V24l-0.5-2h-3L32,24v0.231
			c-1.794,0.408-3.379,1.351-4.589,2.653l-0.203-0.117l-1.982-0.567l-1.5,2.598l1.482,1.433l0.191,0.111
			C25.141,31.181,25,32.074,25,33c0,0.924,0.14,1.814,0.399,2.653l-0.19,0.11l-1.482,1.433l1.5,2.598l1.982-0.567l0.199-0.115
			c1.21,1.304,2.797,2.249,4.593,2.657v0.224l0.5,2h3l0.5-2v-0.224c1.796-0.408,3.383-1.353,4.593-2.657l0.199,0.115l1.982,0.567
			l1.5-2.598l-1.482-1.433L42.601,35.653z M34,38c-2.761,0-5-2.239-5-5s2.239-5,5-5s5,2.239,5,5S36.761,38,34,38z"/>
	</g>
</g>
<g>
	<g>
		<path style="fill:#2196F3;" d="M20.703,30.135C20.891,29.454,21,28.74,21,28c0-0.743-0.109-1.458-0.298-2.141l0.224-0.129
			l1.482-1.433l-1.5-2.598l-1.982,0.567l-0.222,0.128c-1.002-1.019-2.276-1.764-3.703-2.132V20l-0.5-2h-3L11,20v0.262
			c-1.427,0.368-2.702,1.113-3.703,2.132l-0.222-0.128l-1.982-0.567l-1.5,2.598l1.482,1.433l0.224,0.129C5.109,26.542,5,27.257,5,28
			c0,0.74,0.109,1.454,0.297,2.135l-0.222,0.128l-1.482,1.433l1.5,2.598l1.982-0.567l0.218-0.126
			c1.003,1.021,2.278,1.768,3.707,2.137v0.255l0.5,2h3l0.5-2v-0.255c1.429-0.369,2.705-1.115,3.707-2.137l0.218,0.126l1.982,0.567
			l1.5-2.598l-1.482-1.433L20.703,30.135z M13,32c-2.209,0-4-1.791-4-4s1.791-4,4-4s4,1.791,4,4S15.209,32,13,32z"/>
	</g>
</g>
<g>
	<g>
		<path style="fill:#3F51B5;" d="M34.703,16.135C34.891,15.454,35,14.74,35,14c0-0.743-0.109-1.458-0.298-2.141l0.224-0.129
			l1.482-1.433l-1.5-2.598l-1.982,0.567l-0.222,0.128C31.702,7.375,30.427,6.63,29,6.262V6l-0.5-2h-3L25,6v0.262
			c-1.427,0.368-2.702,1.113-3.703,2.132l-0.222-0.128l-1.982-0.567l-1.5,2.598l1.482,1.433l0.224,0.129
			C19.109,12.542,19,13.257,19,14c0,0.74,0.109,1.454,0.297,2.135l-0.222,0.128l-1.482,1.433l1.5,2.598l1.982-0.567l0.218-0.126
			c1.003,1.021,2.278,1.768,3.707,2.137v0.255l0.5,2h3l0.5-2v-0.255c1.429-0.369,2.705-1.115,3.707-2.137l0.218,0.126l1.982,0.567
			l1.5-2.598l-1.482-1.433L34.703,16.135z M27,18c-2.209,0-4-1.791-4-4s1.791-4,4-4s4,1.791,4,4S29.209,18,27,18z"/>
	</g>
</g>
</svg>
