<?xml version="1.0" encoding="utf-8"?>
<!DOCTYPE svg PUBLIC "-//W3C//DTD SVG 1.1//EN" "http://www.w3.org/Graphics/SVG/1.1/DTD/svg11.dtd">
<svg version="1.1"  xmlns="http://www.w3.org/2000/svg" xmlns:xlink="http://www.w3.org/1999/xlink" x="0px" y="0px"
	 width="48px" height="48px" viewBox="0 0 48 48" enable-background="new 0 0 48 48" xml:space="preserve">
  <path d="M6,38c0,2.2,1.8,4,4,4h28c2.2,0,4-1.8,4-4V10c0-2.2-1.8-4-4-4H10c-2.2,0-4,1.8-4,4V38z" fill="#cf6911"/>
  <g transform="matrix(0,0.608,-0.608,0,38.592,9.408)">
    <polygon points="32,25 32,44 44,34.5" fill="#fff"/>
    <rect id="rect4165" x="16.1" y="19" transform="matrix(2.535182e-006 1 -1 2.535182e-006 54.1497 14.9359)" width="7" height="31.1" fill="#fff"/>
    <polygon points="16,4 16,23 4,13.5" fill="#fff"/>
    <rect x="25" y="-2.1" transform="matrix(2.535182e-006 1 -1 2.535182e-006 41.9498 -15.0359)" width="7" height="31.1" fill="#fff"/>
  </g>
</svg>
