<?xml version="1.0" encoding="utf-8"?>
<!DOCTYPE svg PUBLIC "-//W3C//DTD SVG 1.1//EN" "http://www.w3.org/Graphics/SVG/1.1/DTD/svg11.dtd">
<svg version="1.1"  xmlns="http://www.w3.org/2000/svg" xmlns:xlink="http://www.w3.org/1999/xlink" x="0px" y="0px"
	 width="48px" height="48px" viewBox="0 0 48 48" enable-background="new 0 0 48 48" xml:space="preserve">
<path fill="#43A047" d="M44,33c0,5.523-4.477,10-10,10s-10-4.477-10-10s4.477-10,10-10S44,27.477,44,33"/>
<g>
	<rect x="32" y="27" fill="#FFFFFF" width="4" height="12"/>
	<rect x="28" y="31" fill="#FFFFFF" width="12" height="4"/>
</g>
<g>
	<path fill="#1976D2" d="M20.786,19.086c-2.9-2.899-2.889-7.63,0.025-10.544l1.452-1.451c2.914-2.914,7.644-2.926,10.544-0.025
		c2.878,2.878,2.93,7.521,0.119,10.572l-1.508,1.511C28.308,22.016,23.664,21.964,20.786,19.086z M29.979,9.894
		c-1.341-1.34-3.533-1.329-4.888,0.025l-1.452,1.451c-1.354,1.354-1.365,3.547-0.024,4.888c1.354,1.354,3.566,1.357,5.034,0.005
		l1.393-1.395C31.336,13.46,31.334,11.249,29.979,9.894z"/>
	<path fill="#1976D2" d="M8.058,31.814c-2.9-2.9-2.889-7.631,0.024-10.544l1.452-1.452c2.914-2.914,7.644-2.925,10.544-0.024
		c2.877,2.877,2.929,7.521,0.119,10.572l-1.509,1.511C15.579,34.744,10.936,34.691,8.058,31.814z M17.25,22.622
		c-1.341-1.341-3.533-1.329-4.888,0.024l-1.452,1.452c-1.354,1.354-1.365,3.547-0.024,4.887c1.355,1.355,3.566,1.358,5.033,0.006
		l1.393-1.395C18.608,26.188,18.605,23.977,17.25,22.622z"/>
</g>
<path fill="#42A5F5" d="M14.421,25.449c-0.781-0.78-0.781-2.047,0-2.828l9.192-9.192c0.781-0.781,2.047-0.781,2.829,0
	c0.78,0.781,0.78,2.048,0,2.828l-9.192,9.192C16.469,26.23,15.203,26.23,14.421,25.449z"/>
</svg>
