<?xml version="1.0" encoding="iso-8859-1"?>
<svg version="1.1"  xmlns="http://www.w3.org/2000/svg" xmlns:xlink="http://www.w3.org/1999/xlink" x="0px" y="0px"
	 viewBox="0 0 48 48" enable-background="new 0 0 48 48" xml:space="preserve">
<path fill="#9575CD" d="M34,12l-6-6h-8l-6,6h-3v28c0,2.2,1.8,4,4,4h18c2.2,0,4-1.8,4-4V12H34z"/>
<g>
	<path fill="#7454B3" d="M24.5,39h-1c-0.8,0-1.5-0.7-1.5-1.5v-19c0-0.8,0.7-1.5,1.5-1.5h1c0.8,0,1.5,0.7,1.5,1.5v19
		C26,38.3,25.3,39,24.5,39z"/>
	<path fill="#7454B3" d="M31.5,39L31.5,39c-0.8,0-1.5-0.7-1.5-1.5v-19c0-0.8,0.7-1.5,1.5-1.5l0,0c0.8,0,1.5,0.7,1.5,1.5v19
		C33,38.3,32.3,39,31.5,39z"/>
	<path fill="#7454B3" d="M16.5,39L16.5,39c-0.8,0-1.5-0.7-1.5-1.5v-19c0-0.8,0.7-1.5,1.5-1.5l0,0c0.8,0,1.5,0.7,1.5,1.5v19
		C18,38.3,17.3,39,16.5,39z"/>
</g>
<path fill="#B39DDB" d="M11,8h26c1.1,0,2,0.9,2,2v2H9v-2C9,8.9,9.9,8,11,8z"/>
</svg>
